<svg xmlns="http://www.w3.org/2000/svg" width="126" height="56" fill="none" viewBox="0 0 126 56">
    <g clip-path="url(#clip0)">
        <path fill="#000" d="M44.447 50.481c0 1.826-1.372 3.206-3.065 3.206-1.05 0-1.815-.447-2.3-1.218v1.055h-1.048v-8.48h1.049v3.408c.484-.73 1.25-1.217 2.299-1.217 1.694.04 3.065 1.46 3.065 3.246zm-1.049 0c0-1.258-.927-2.191-2.137-2.191s-2.178.933-2.178 2.191c0 1.258.927 2.191 2.178 2.191 1.21 0 2.137-.933 2.137-2.191zm7.18-3.044l-2.501 6.493c-.524 1.38-1.452 2.151-2.703 2.07v-.974c.807.081 1.331-.447 1.654-1.258l.121-.244-2.662-6.087h1.13l2.056 4.789 1.735-4.788h1.17zm25.006 2.922l-2.057-2.922h1.855l1.29 1.827 1.21-1.827h1.735l-2.057 3.044 2.178 3.084h-1.895l-1.372-1.948-1.33 1.948h-1.735l2.178-3.206zm8.752 1.34c.202.486.524.77 1.13.77.443 0 .725-.162.725-.527s-.242-.528-1.089-.852c-1.089-.406-1.774-1.015-1.774-1.948 0-1.015.726-1.826 2.097-1.826 1.331 0 2.057.568 2.218 1.46l-1.21.528c-.12-.487-.484-.73-1.008-.73-.403 0-.645.203-.645.487 0 .324.322.446 1.048.77 1.09.447 1.815 1.015 1.815 2.03 0 .892-.726 1.866-2.258 1.866-1.13 0-2.098-.568-2.34-1.501l1.291-.528zm-20.852 1.866h1.613v-6.127h-1.613v6.127zm0-7.142h1.613V44.8h-1.613v1.623zm17.06 7.142h1.614v-6.127h-1.613v6.127zm0-7.142h1.614V44.8h-1.613v1.623zM60.5 44.8h1.614v8.765h-1.614V44.8zm-2.904 2.638v.649c-.242-.366-1.008-.771-1.895-.771-1.493 0-2.985 1.298-3.066 3.043v.325c.081 1.745 1.573 3.043 3.066 3.043.887 0 1.653-.405 1.895-.77v.649h1.614v-6.128h-1.614v-.04zm-1.734 4.869c-.968 0-1.734-.812-1.734-1.785 0-.974.766-1.786 1.734-1.786s1.734.812 1.734 1.786-.806 1.785-1.734 1.785zm15.125-4.87v.65c-.242-.366-1.008-.771-1.896-.771-1.492 0-2.984 1.298-3.065 3.043v.325c.08 1.745 1.573 3.043 3.065 3.043.888 0 1.654-.405 1.896-.77v.649h1.613v-6.128h-1.613v-.04zm-1.734 4.87c-.968 0-1.735-.812-1.735-1.785 0-.974.767-1.786 1.735-1.786.968 0 1.734.812 1.734 1.786s-.766 1.785-1.734 1.785z"/>
        <rect width="124.306" height="34.533" x=".928" y=".933" fill="#fff" rx="17.267"/>
        <path fill="#ED1C24" fill-rule="evenodd" d="M18.15 1.988c-8.914 0-16.174 7.305-16.174 16.273s7.26 16.272 16.174 16.272h89.7c8.914 0 16.174-7.304 16.174-16.272 0-8.968-7.26-16.273-16.174-16.273h-89.7zm89.7 34.534h-89.7C8.147 36.522 0 28.325 0 18.26S8.147 0 18.15 0h89.7C117.853 0 126 8.197 126 18.26c0 10.065-8.147 18.262-18.15 18.262z" clip-rule="evenodd"/>
        <path fill="#ED1C24" fill-rule="evenodd" d="M21.296 27.716h4.154v-5.519c0-1.501 0-2.84-.605-4.139-1.049-2.354-3.388-3.814-6.05-3.814-3.832 0-6.655 2.84-6.655 6.817 0 3.936 2.783 6.817 6.655 6.817.444 0 1.049-.04 1.815-.203v-4.3c-.686.202-1.21.364-1.654.364-1.613 0-2.58-1.055-2.58-2.637 0-1.583 1.007-2.598 2.338-2.598 1.694 0 2.541.974 2.541 2.922v6.29h.04zm6.453-3.733v3.733h4.396c1.654 0 2.985 0 4.074-.73 1.049-.69 1.613-1.745 1.613-3.003 0-1.907-1.17-3.125-3.59-4.14l-1.814-.77c-.202-.082-.363-.284-.363-.487 0-.284.282-.487.645-.487h4.477v-3.53H32.67c-2.985 0-4.679 1.42-4.679 3.652 0 1.785 1.089 3.043 3.227 3.976l1.936.812c.201.122.363.284.363.527 0 .366-.283.487-.767.487H27.75v-.04zm12.261 3.733h4.154v-7.345c0-1.258.847-2.07 1.936-2.07 1.09 0 1.936.812 1.936 2.07v7.345h4.155v-6.939c0-4.18-2.098-6.493-4.961-6.493-1.13 0-2.178.365-3.025 1.136V9.09H40.01v18.626zm14.802 0h4.235V14.528h-4.235v13.188zm-.322-16.76c0 1.34 1.089 2.436 2.42 2.436 1.33 0 2.42-1.096 2.42-2.435 0-1.34-1.09-2.395-2.42-2.395-1.331 0-2.42 1.056-2.42 2.395zm7.34 16.76h4.034v-4.95c0-3.003 1.21-4.22 4.235-4.22h.201v-3.978h-.524c-1.976 0-3.307.568-4.154 1.989v-1.989H61.79v13.148h.04zm16.013-6.858l-1.775-6.33h-4.275l3.549 10.875c.564 1.745 1.573 2.557 3.146 2.557 1.532 0 2.581-.812 3.146-2.557l3.509-10.875h-4.276l-1.734 6.33c-.282.974-.484 1.867-.645 2.678-.162-.852-.363-1.745-.645-2.678zm16.697 6.858h4.155v-5.519c0-1.501 0-2.84-.605-4.139-1.09-2.354-3.388-3.814-6.05-3.814-3.832 0-6.655 2.84-6.655 6.817 0 3.936 2.783 6.817 6.655 6.817.443 0 1.048-.04 1.815-.203v-4.3c-.686.202-1.25.364-1.654.364-1.613 0-2.581-1.055-2.581-2.637 0-1.583 1.008-2.598 2.339-2.598 1.694 0 2.541.974 2.541 2.922v6.29h.04zM113.86 9.09h-4.155v11.728c0 1.907-.887 2.921-2.46 2.921-1.452 0-2.42-.974-2.42-2.597 0-1.582.968-2.597 2.581-2.597.444 0 .968.122 1.654.325v-4.342c-.766-.163-1.371-.203-1.815-.203-3.872 0-6.655 2.881-6.655 6.817 0 4.018 2.824 6.818 6.655 6.818 2.662 0 4.961-1.461 6.05-3.815.605-1.298.605-2.597.605-4.098V9.09h-.04z" clip-rule="evenodd"/>
    </g>
    <defs>
        <clipPath id="clip0">
            <path fill="#fff" d="M0 0H126V56H0z"/>
        </clipPath>
    </defs>
</svg>
